<svg width="386" height="207" viewBox="0 0 386 207" fill="none" xmlns="http://www.w3.org/2000/svg">
<path d="M0 112C0 112 43 167.504 83.5 183C124.209 198.575 148.914 207.23 192.5 207C245.5 206.72 262.5 201.004 305 180C348.965 158.271 385.5 112 385.5 112C390.432 110.591 350.781 48.6333 305 28.0039C263.635 9.36443 237.869 0.11585 192.5 0.499759C167.011 0.715445 152.498 3.4584 128 10.4995C103.703 17.4828 89.9335 22.5947 68.5 35.9998C50.7367 47.1093 40.8497 54.2788 27 69.9995C14.1104 84.6305 0 112 0 112Z" fill="black"/>
</svg>
